<?xml version="1.0" encoding="utf-8"?>
<svg id="master-artboard" viewBox="0 0 1400 980" version="1.1" xmlns="http://www.w3.org/2000/svg" x="0px" y="0px" width="1400px" height="980px" enable-background="new 0 0 1400 980">
<path d="M 0 0 H 1400 V 980 H 0 V 0 Z" fill="#313282" transform="matrix(1, 0, 0, 1, 0, 0)"/><path d="M 1400 18.791000366210938 L 1092.6619873046875 326.12701416015625 L 1186.56201171875 326.35400390625 L 1400 112.91100311279297 Z" fill="#191345" transform="matrix(1, 0, 0, 1, 0, 0)"/><path d="M 0 147.11199951171875 L 111.44100189208984 147.11199951171875 L 0 258.5559997558594 Z" fill="#191345" transform="matrix(1, 0, 0, 1, 0, 0)"/><path d="M 0 537.6090087890625 L 193.07200622558594 344.5400085449219 L 247.79200744628906 344.5400085449219 L 0 592.3319702148438 Z" fill="#ED0677" transform="matrix(1, 0, 0, 1, 0, 0)"/><path d="M 0 427.89599609375 L 101.10600280761719 326.7900085449219 L 228.21800231933594 326.7900085449219 L 0 555.0079956054688 Z" fill="#A5CBEC" transform="matrix(1, 0, 0, 1, 0, 0)"/><path d="M 470.7749938964844 0 L 292.97698974609375 177.8000030517578 L 103.58200073242188 177.79100036621094 L 281.37200927734375 0 Z" fill="#A5CBEC" transform="matrix(1, 0, 0, 1, 0, 0)"/><path d="M 102.3949966430664 980 L 607.125 475.2720031738281 L 647.6129760742188 475.2720031738281 L 142.88499450683594 980 Z" fill="#ED0677" transform="matrix(1, 0, 0, 1, 0, 0)"/><path d="M 694.5900268554688 387.9309997558594 L 637.4249877929688 444.97198486328125 L 677.9130249023438 444.97198486328125 L 735.0800170898438 387.9309997558594 Z" fill="#191345" transform="matrix(1, 0, 0, 1, 0, 0)"/><path d="M 636.3189697265625 0 L 362.5790100097656 273.74200439453125 L 307.85699462890625 273.74200439453125 L 581.5980224609375 0 Z" fill="#ED0677" transform="matrix(1, 0, 0, 1, 0, 0)"/><path d="M 458.5220031738281 177.7969970703125 L 362.5790100097656 273.74200439453125 L 307.85699462890625 273.74200439453125 L 403.8059997558594 177.79400634765625 Z" fill="#191345" transform="matrix(1, 0, 0, 1, 0, 0)"/><path d="M 399.62701416015625 236.69400024414062 L 362.5790100097656 273.74200439453125 L 307.85699462890625 273.74200439453125 L 344.9100036621094 236.69000244140625 Z" fill="#A5CBEC" transform="matrix(1, 0, 0, 1, 0, 0)"/><path d="M 0 942.8400268554688 L 467.5710144042969 475.2720031738281 L 483.32501220703125 475.2720031738281 L 0 958.5960083007812 Z" fill="#191345" transform="matrix(1, 0, 0, 1, 0, 0)"/><path d="M 483.32501220703125 475.2720031738281 L 467.5710144042969 475.2720031738281 L 574.031982421875 368.81298828125 L 589.7860107421875 368.81298828125 Z" fill="#A5CBEC" transform="matrix(1, 0, 0, 1, 0, 0)"/><path d="M 0 353.7799987792969 L 325.1159973144531 28.663000106811523 L 354.24798583984375 28.663000106811523 L 0 382.9119873046875 Z" fill="#0088CE" transform="matrix(1, 0, 0, 1, 0, 0)"/><path d="M 0 922.77001953125 L 0 735.948974609375 L 115.80699920654297 620.14599609375 L 302.62701416015625 620.1480102539062 Z" fill="#0088CE" transform="matrix(1, 0, 0, 1, 0, 0)"/><path d="M 713.9240112304688 0 L 93.77899932861328 620.14599609375 L 36.08300018310547 620.14599609375 L 656.22900390625 0 Z" fill="#191345" transform="matrix(1, 0, 0, 1, 0, 0)"/><path d="M 126.2030029296875 980 L 328.0299987792969 778.1729736328125 L 441.4880065917969 778.1729736328125 L 239.66099548339844 980 Z" fill="#191345" transform="matrix(1, 0, 0, 1, 0, 0)"/><path d="M 670.5830078125 730.0059814453125 L 792.9400024414062 607.64697265625 L 906.3980102539062 607.64697265625 L 784.041015625 730.0059814453125 Z" fill="#191345" transform="matrix(1, 0, 0, 1, 0, 0)"/><path d="M 324.5350036621094 676.343017578125 L 20.878999710083008 980 L 37.13399887084961 980 L 340.7909851074219 676.343017578125 Z" fill="#0088CE" transform="matrix(1, 0, 0, 1, 0, 0)"/><path d="M 445.56298828125 268.36199951171875 L 315.4809875488281 398.4460144042969 L 257.7850036621094 398.4429931640625 L 387.86700439453125 268.36199951171875 Z" fill="#A5CBEC" transform="matrix(1, 0, 0, 1, 0, 0)"/><path d="M 762.3179931640625 0 L 142.1739959716797 620.14599609375 L 115.75700378417969 620.14599609375 L 735.9010009765625 0 Z" fill="#A5CBEC" transform="matrix(1, 0, 0, 1, 0, 0)"/><path d="M 762.3179931640625 0 L 463.0329895019531 299.2879943847656 L 436.6159973144531 299.2879943847656 L 735.9010009765625 0 Z" fill="#ED0677" transform="matrix(1, 0, 0, 1, 0, 0)"/><path d="M 660.4990234375 789.8740234375 L 927.7319946289062 522.6389770507812 L 913.2579956054688 522.6389770507812 L 646.0189819335938 789.8740234375 Z" fill="#A5CBEC" transform="matrix(1, 0, 0, 1, 0, 0)"/><path d="M 175.92799377441406 980 L 464.02301025390625 691.9080200195312 L 487.5429992675781 691.9080200195312 L 199.44900512695312 980 Z" fill="#A5CBEC" transform="matrix(1, 0, 0, 1, 0, 0)"/><path d="M 0 314.0119934082031 L 93.83100128173828 220.18299865722656 L 115.54000091552734 220.18299865722656 L 0 335.7229919433594 Z" fill="#A5CBEC" transform="matrix(1, 0, 0, 1, 0, 0)"/><path d="M 240.62100219726562 0 L 118.54299926757812 122.08000183105469 L 104.68000030517578 122.08000183105469 L 226.75900268554688 0 Z" fill="#191345" transform="matrix(1, 0, 0, 1, 0, 0)"/><path d="M 555.0079956054688 0 L 163.19200134277344 391.8190002441406 L 36.08300018310547 391.81201171875 L 427.89599609375 0 Z" fill="#191345" transform="matrix(1, 0, 0, 1, 0, 0)"/><path d="M 79.76200103759766 0 L 0 79.76499938964844 L 0 173.60400390625 L 173.6009979248047 0 Z" fill="#A5CBEC" transform="matrix(1, 0, 0, 1, 0, 0)"/><path d="M 433.3160095214844 86.79100036621094 L 73.70800018310547 446.3999938964844 L 51.99800109863281 446.3999938964844 L 411.6080017089844 86.79100036621094 Z" fill="#ED0677" transform="matrix(1, 0, 0, 1, 0, 0)"/><path d="M 842.35400390625 422.4649963378906 L 698.030029296875 566.7890014648438 L 689.3159790039062 566.7890014648438 L 833.6389770507812 422.4649963378906 Z" fill="#ED0677" transform="matrix(1, 0, 0, 1, 0, 0)"/><path d="M 276.1050109863281 980 L 284.8190002441406 980 L 640.0889892578125 624.72900390625 L 631.3740234375 624.72900390625 Z" fill="#191345" transform="matrix(1, 0, 0, 1, 0, 0)"/><path d="M 1400 195.91000366210938 L 1068.1639404296875 527.7459716796875 L 1076.8790283203125 527.7459716796875 L 1400 204.625 Z" fill="#191345" transform="matrix(1, 0, 0, 1, 0, 0)"/><path d="M 1144.666015625 522.6389770507812 L 1021.458984375 645.8469848632812 L 1030.1739501953125 645.8469848632812 L 1153.3809814453125 522.6389770507812 Z" fill="#191345" transform="matrix(1, 0, 0, 1, 0, 0)"/><path d="M 687.3060302734375 980 L 696.02099609375 980 L 753.7949829101562 922.2249755859375 L 745.0800170898438 922.2249755859375 Z" fill="#191345" transform="matrix(1, 0, 0, 1, 0, 0)"/><path d="M 539.5679931640625 980 L 1400 119.56800079345703 L 1400 110.85399627685547 L 530.85498046875 980 Z" fill="#ED0677" transform="matrix(1, 0, 0, 1, 0, 0)"/><path d="M 1400 689.0250244140625 L 1400 680.31201171875 L 1100.31201171875 980 L 1109.0250244140625 980 Z" fill="#0088CE" transform="matrix(1, 0, 0, 1, 0, 0)"/><path d="M 512.4409790039062 0 L 437.5679931640625 74.87799835205078 L 427.3080139160156 74.87799835205078 L 502.1820068359375 0 Z" fill="#ED0677" transform="matrix(1, 0, 0, 1, 0, 0)"/><path d="M 404.9580078125 210.0590057373047 L 394.70001220703125 210.0590057373047 L 546.5880126953125 58.16999816894531 L 556.8469848632812 58.16999816894531 Z" fill="#0088CE" transform="matrix(1, 0, 0, 1, 0, 0)"/><path d="M 179.8520050048828 227.73199462890625 L 169.59300231933594 227.73199462890625 L 268.364013671875 128.96099853515625 L 278.62298583984375 128.96099853515625 Z" fill="#191345" transform="matrix(1, 0, 0, 1, 0, 0)"/><path d="M 142.53500366210938 122.08000183105469 L 132.2760009765625 122.08000183105469 L 201.31900024414062 53.03499984741211 L 211.5780029296875 53.03499984741211 Z" fill="#ED0677" transform="matrix(1, 0, 0, 1, 0, 0)"/><path d="M 579.3259887695312 475.2720031738281 L 336.87799072265625 717.7210083007812 L 328.1650085449219 717.7210083007812 L 570.6119995117188 475.2720031738281 Z" fill="#A5CBEC" transform="matrix(1, 0, 0, 1, 0, 0)"/><path d="M 825.5800170898438 475.2720031738281 L 947.22998046875 353.62298583984375 L 938.5180053710938 353.62298583984375 L 816.8670043945312 475.2720031738281 Z" fill="#0088CE" transform="matrix(1, 0, 0, 1, 0, 0)"/><path d="M 311.364990234375 313.93499755859375 L 229.08700561523438 396.2139892578125 L 220.3730010986328 396.2139892578125 L 302.6510009765625 313.93499755859375 Z" fill="#191345" transform="matrix(1, 0, 0, 1, 0, 0)"/><path d="M 0 625.301025390625 L 229.08700561523438 396.2139892578125 L 220.3730010986328 396.2139892578125 L 0 616.5869750976562 Z" fill="#A5CBEC" transform="matrix(1, 0, 0, 1, 0, 0)"/><path d="M 13.663999557495117 391.81201171875 L 89.34600067138672 316.1310119628906 L 98.05899810791016 316.1310119628906 L 22.375999450683594 391.81201171875 Z" fill="#ED0677" transform="matrix(1, 0, 0, 1, 0, 0)"/><path d="M 433.3160095214844 86.79100036621094 L 380.364013671875 139.74899291992188 L 358.65301513671875 139.74899291992188 L 411.6080017089844 86.79100036621094 Z" fill="#A5CBEC" transform="matrix(1, 0, 0, 1, 0, 0)"/><path d="M 745.6259765625 257.3370056152344 L 434.7359924316406 568.2269897460938 L 413.0260009765625 568.2269897460938 L 723.9180297851562 257.3370056152344 Z" fill="#0088CE" transform="matrix(1, 0, 0, 1, 0, 0)"/><path d="M 1013.635009765625 170.25399780273438 L 816.510009765625 367.37799072265625 L 802.7429809570312 367.37799072265625 L 999.8699951171875 170.25399780273438 Z" fill="#191345" transform="matrix(1, 0, 0, 1, 0, 0)"/><path d="M 760.5679931640625 170.25399780273438 L 703.0819702148438 227.73899841308594 L 689.3159790039062 227.73899841308594 L 746.802978515625 170.25399780273438 Z" fill="#A5CBEC" transform="matrix(1, 0, 0, 1, 0, 0)"/><path d="M 1072.748046875 0 L 929.9940185546875 142.7550048828125 L 918.9609985351562 142.7550048828125 L 1061.717041015625 0 Z" fill="#ED0677" transform="matrix(1, 0, 0, 1, 0, 0)"/><path d="M 0 150.27000427246094 L 91.0009994506836 59.266998291015625 L 145.7220001220703 59.266998291015625 L 0 204.99000549316406 Z" fill="#ED0677" transform="matrix(1, 0, 0, 1, 0, 0)"/><path d="M 123.9010009765625 0 L 64.63500213623047 59.266998291015625 L 42.92399978637695 59.266998291015625 L 102.19100189208984 0 Z" fill="#0088CE" transform="matrix(1, 0, 0, 1, 0, 0)"/><path d="M 0 896.5469970703125 L 228.6580047607422 667.8889770507812 L 238.0260009765625 667.8889770507812 L 0 905.9180297851562 Z" fill="#A5CBEC" transform="matrix(1, 0, 0, 1, 0, 0)"/><path d="M 254.1529998779297 980 L 350.60101318359375 883.5549926757812 L 359.968994140625 883.5549926757812 L 263.5220031738281 980 Z" fill="#ED0677" transform="matrix(1, 0, 0, 1, 0, 0)"/><path d="M 0 283.7099914550781 L 93.66200256347656 190.04800415039062 L 103.02999877929688 190.04800415039062 L 0 293.0769958496094 Z" fill="#A5CBEC" transform="matrix(1, 0, 0, 1, 0, 0)"/><path d="M 0 174.23800659179688 L 59.09000015258789 115.14700317382812 L 68.45800018310547 115.14700317382812 L 0 183.60400390625 Z" fill="#0088CE" transform="matrix(1, 0, 0, 1, 0, 0)"/><path d="M 0 467.13299560546875 L 467.135986328125 0 L 477.5989990234375 0 L 0 477.60101318359375 Z" fill="#0088CE" transform="matrix(1, 0, 0, 1, 0, 0)"/><path d="M 343.5690002441406 530.468994140625 L 152.7100067138672 721.3319702148438 L 99.74099731445312 721.3319702148438 L 290.6050109863281 530.468994140625 Z" fill="#191345" transform="matrix(1, 0, 0, 1, 0, 0)"/><path d="M 996.18798828125 980 L 1400 576.1810302734375 L 1400 507.7340087890625 L 927.7319946289062 980 Z" fill="#191345" transform="matrix(1, 0, 0, 1, 0, 0)"/><path d="M 152.70799255371094 721.3319702148438 L 95.63999938964844 778.4019775390625 L 42.66999816894531 778.4019775390625 L 99.74099731445312 721.3319702148438 Z" fill="#ED0677" transform="matrix(1, 0, 0, 1, 0, 0)"/><path d="M 430.9330139160156 443.1080017089844 L 373.864013671875 500.1780090332031 L 320.8949890136719 500.1780090332031 L 377.9649963378906 443.1080017089844 Z" fill="#ED0677" transform="matrix(1, 0, 0, 1, 0, 0)"/><path d="M 478.4259948730469 395.6159973144531 L 449.0450134277344 424.9989929199219 L 396.07598876953125 424.9989929199219 L 425.4580078125 395.6159973144531 Z" fill="#A5CBEC" transform="matrix(1, 0, 0, 1, 0, 0)"/><path d="M 615.8790283203125 258.16400146484375 L 523.9320068359375 350.1109924316406 L 470.9630126953125 350.1109924316406 L 562.9110107421875 258.16400146484375 Z" fill="#191345" transform="matrix(1, 0, 0, 1, 0, 0)"/><path d="M 335.7239990234375 0 L 247.85400390625 87.87200164794922 L 226.14300537109375 87.87200164794922 L 314.0140075683594 0 Z" fill="#ED0677" transform="matrix(1, 0, 0, 1, 0, 0)"/><path d="M 219.36399841308594 116.35800170898438 L 73.70800018310547 262.0159912109375 L 51.99800109863281 262.0159912109375 L 197.65499877929688 116.35800170898438 Z" fill="#191345" transform="matrix(1, 0, 0, 1, 0, 0)"/><path d="M 395.07598876953125 318.8479919433594 L 264.9949951171875 448.9320068359375 L 207.29800415039062 448.9320068359375 L 337.3800048828125 318.8479919433594 Z" fill="#0088CE" transform="matrix(1, 0, 0, 1, 0, 0)"/><path d="M 0 688.7680053710938 L 127.88700103759766 560.8790283203125 L 136.50399780273438 560.8790283203125 L 0 697.3829956054688 Z" fill="#ED0677" transform="matrix(1, 0, 0, 1, 0, 0)"/><path d="M 449.33599853515625 0 L 271.53900146484375 177.8000030517578 L 264.5039978027344 177.8000030517578 L 442.3030090332031 0 Z" fill="#A5CBEC" transform="matrix(1, 0, 0, 1, 0, 0)"/><path d="M 0 514.6069946289062 L 44.400001525878906 470.2040100097656 L 105.11199951171875 470.2040100097656 L 0 575.3159790039062 Z" fill="#191345" transform="matrix(1, 0, 0, 1, 0, 0)"/><path d="M 0 764.885009765625 L 63.10100173950195 701.7849731445312 L 86.62000274658203 701.7849731445312 L 0 788.406005859375 Z" fill="#A5CBEC" transform="matrix(1, 0, 0, 1, 0, 0)"/>
</svg>