<svg xmlns="http://www.w3.org/2000/svg" width="40" height="40" viewBox="0 0 64.405 56.238">
  <path id="calendar_month_FILL0_wght400_GRAD0_opsz48" d="M38.2,37.743a4,4,0,0,1-2.549-.808,2.465,2.465,0,0,1,0-4.007,4.424,4.424,0,0,1,5.1,0,2.465,2.465,0,0,1,0,4.007A4,4,0,0,1,38.2,37.743Zm-14.312,0a4,4,0,0,1-2.549-.808,2.465,2.465,0,0,1,0-4.007,4,4,0,0,1,2.549-.808,4,4,0,0,1,2.549.808,2.465,2.465,0,0,1,0,4.007A4,4,0,0,1,23.89,37.743Zm28.624,0a4,4,0,0,1-2.549-.808,2.465,2.465,0,0,1,0-4.007,4.424,4.424,0,0,1,5.1,0,2.465,2.465,0,0,1,0,4.007A4,4,0,0,1,52.514,37.743ZM38.2,48.99a4,4,0,0,1-2.549-.808,2.465,2.465,0,0,1,0-4.007,4.424,4.424,0,0,1,5.1,0,2.465,2.465,0,0,1,0,4.007A4,4,0,0,1,38.2,48.99Zm-14.312,0a4,4,0,0,1-2.549-.808,2.465,2.465,0,0,1,0-4.007,4,4,0,0,1,2.549-.808,4,4,0,0,1,2.549.808,2.465,2.465,0,0,1,0,4.007A4,4,0,0,1,23.89,48.99Zm28.624,0a4,4,0,0,1-2.549-.808,2.465,2.465,0,0,1,0-4.007,4.424,4.424,0,0,1,5.1,0,2.465,2.465,0,0,1,0,4.007A4,4,0,0,1,52.514,48.99ZM11.367,60.238A5.9,5.9,0,0,1,7.61,58.972,3.691,3.691,0,0,1,6,56.02V12.436A3.691,3.691,0,0,1,7.61,9.483a5.9,5.9,0,0,1,3.757-1.265h5.814V4H23V8.218H53.409V4h5.814V8.218h5.814a5.9,5.9,0,0,1,3.757,1.265,3.691,3.691,0,0,1,1.61,2.952V56.02a3.691,3.691,0,0,1-1.61,2.952,5.9,5.9,0,0,1-3.757,1.265Zm0-4.218h53.67V25.792H11.367V56.02Zm0-34.446h53.67V12.436H11.367Zm0,0V12.436h0Z" transform="translate(-6 -4)" fill="#282b77"/>
</svg>
