<svg xmlns="http://www.w3.org/2000/svg" width="26" height="26" viewBox="0 0 32 35.104">
  <path id="pending_actions_FILL0_wght400_GRAD0_opsz48" d="M30.042,37.1a7.692,7.692,0,0,1-5.621-2.319,7.828,7.828,0,0,1,0-11.158,7.971,7.971,0,0,1,11.242,0,7.828,7.828,0,0,1,0,11.158A7.692,7.692,0,0,1,30.042,37.1Zm2.442-3.678,1.179-1.17-3.158-3.134V24.441H28.863v5.266ZM8.526,34.847a2.446,2.446,0,0,1-1.789-.731A2.409,2.409,0,0,1,6,32.34V8.018a2.409,2.409,0,0,1,.737-1.776A2.446,2.446,0,0,1,8.526,5.51h7.789a4.215,4.215,0,0,1,1.558-2.487A4.483,4.483,0,0,1,20.779,2a4.593,4.593,0,0,1,2.947,1.045A3.843,3.843,0,0,1,25.242,5.51h7.789a2.446,2.446,0,0,1,1.789.731,2.409,2.409,0,0,1,.737,1.776V20.346a11.839,11.839,0,0,0-1.242-.648,11.636,11.636,0,0,0-1.284-.481V8.018H28.568v5.433H12.989V8.018H8.526V32.34H20.021a10.35,10.35,0,0,0,.505,1.233,13.438,13.438,0,0,0,.716,1.275ZM20.779,8.185a1.789,1.789,0,0,0,1.305-.543,1.807,1.807,0,0,0,0-2.591,1.84,1.84,0,0,0-2.611,0,1.807,1.807,0,0,0,0,2.591A1.789,1.789,0,0,0,20.779,8.185Z" transform="translate(-6 -2)" fill="#fff"/>
</svg>
