<svg xmlns="http://www.w3.org/2000/svg" width="24" height="24" viewBox="0 0 59.575 45.179">
  <path id="format_list_bulleted_FILL0_wght400_GRAD0_opsz48" d="M10.22,35.354a4.357,4.357,0,0,1-2.979-1.092,3.5,3.5,0,0,1,0-5.346,4.356,4.356,0,0,1,2.979-1.092,4.022,4.022,0,0,1,2.855,1.129,3.494,3.494,0,0,1,0,5.271A4.022,4.022,0,0,1,10.22,35.354ZM10.137,16.53A4.205,4.205,0,0,1,7.2,15.438a3.578,3.578,0,0,1,0-5.346A4.205,4.205,0,0,1,10.137,9a4.205,4.205,0,0,1,2.937,1.092,3.578,3.578,0,0,1,0,5.346A4.205,4.205,0,0,1,10.137,16.53Zm.083,37.649a4.356,4.356,0,0,1-2.979-1.092A3.352,3.352,0,0,1,6,50.489a3.539,3.539,0,0,1,1.241-2.711,4.272,4.272,0,0,1,2.979-1.129,4.022,4.022,0,0,1,2.855,1.129,3.592,3.592,0,0,1,1.2,2.711,3.4,3.4,0,0,1-1.2,2.6A4.1,4.1,0,0,1,10.22,54.179Zm12.329-1.506V48.155H65.575v4.518Zm0-18.825V29.331H65.575v4.518Zm0-18.825V10.506H65.575v4.518Z" transform="translate(-6 -9)" fill="#ffffff"/>
</svg>
