<svg xmlns="http://www.w3.org/2000/svg" width="40" height="40" viewBox="0 0 72.159 69.045">
  <path id="timer_FILL0_wght400_GRAD0_opsz48" d="M30.053,6.938V2H54.106V6.938Zm9.02,36.786h6.013V24.8H39.073Zm3.007,27.322A41.242,41.242,0,0,1,28.1,68.7a38.1,38.1,0,0,1-11.475-6.378A30.747,30.747,0,0,1,8.856,52.9a24.5,24.5,0,0,1,0-22.96,30.746,30.746,0,0,1,7.767-9.423A38.1,38.1,0,0,1,28.1,14.138a41.242,41.242,0,0,1,13.981-2.345,42.028,42.028,0,0,1,12.628,1.852A36.975,36.975,0,0,1,65.23,18.788l5.111-4.2,4.209,3.456-5.111,4.2A30.324,30.324,0,0,1,75.6,30.227a23.068,23.068,0,0,1,2.556,11.192A24.163,24.163,0,0,1,75.3,52.9a30.746,30.746,0,0,1-7.767,9.423A38.1,38.1,0,0,1,56.06,68.7,41.242,41.242,0,0,1,42.079,71.045Zm0-4.938q12.528,0,21.3-7.2t8.769-17.488q0-10.287-8.769-17.488t-21.3-7.2q-12.528,0-21.3,7.2T12.013,41.419q0,10.287,8.769,17.488T42.079,66.107Zm0-24.606Z" transform="translate(-6 -2)" fill="#282b77"/>
</svg>
