<svg xmlns="http://www.w3.org/2000/svg" width="26" height="26" viewBox="0 0 67.653 51.523">
  <path id="description_FILL0_wght400_GRAD0_opsz48" d="M24.808,44.574H58.846V40.71H24.808Zm0-10.949H58.846V29.761H24.808Zm-10.465,21.9A8.363,8.363,0,0,1,9.9,54.364a3.26,3.26,0,0,1-1.9-2.7V7.864a3.26,3.26,0,0,1,1.9-2.7A8.363,8.363,0,0,1,14.342,4H52.5l23.15,14.1V51.659a3.26,3.26,0,0,1-1.9,2.7,8.363,8.363,0,0,1-4.44,1.159Zm34.989-35.68V7.864H14.342V51.659H69.311V19.843ZM14.342,7.864V51.659h0V7.864Z" transform="translate(-8 -4)" fill="#ffffff"/>
</svg>
