<svg xmlns="http://www.w3.org/2000/svg" width="26" height="26" viewBox="0 0 40 40">
  <path id="settings_FILL0_wght400_GRAD0_opsz48" d="M19.4,44l-1-6.3a13.4,13.4,0,0,1-2-.95,13.741,13.741,0,0,1-1.85-1.25l-5.9,2.7L4,30l5.4-3.95a5.944,5.944,0,0,1-.125-1.025Q9.25,24.45,9.25,24t.025-1.025A5.944,5.944,0,0,1,9.4,21.95L4,18,8.65,9.8l5.9,2.7a13.742,13.742,0,0,1,1.85-1.25,10.347,10.347,0,0,1,2-.9L19.4,4h9.2l1,6.3a16.21,16.21,0,0,1,2.025.925A8.606,8.606,0,0,1,33.45,12.5l5.9-2.7L44,18l-5.4,3.85a7.046,7.046,0,0,1,.125,1.075q.025.575.025,1.075t-.025,1.05A6.962,6.962,0,0,1,38.6,26.1L44,30l-4.65,8.2-5.9-2.7a16.587,16.587,0,0,1-1.825,1.275A8.713,8.713,0,0,1,29.6,37.7l-1,6.3ZM24,30.5A6.487,6.487,0,0,0,30.5,24,6.487,6.487,0,0,0,24,17.5,6.487,6.487,0,0,0,17.5,24,6.487,6.487,0,0,0,24,30.5Zm0-3a3.5,3.5,0,0,1-2.475-5.975,3.5,3.5,0,0,1,4.95,4.95A3.372,3.372,0,0,1,24,27.5ZM24,24ZM21.8,41h4.4l.7-5.6a11.792,11.792,0,0,0,3.125-1.25A12.815,12.815,0,0,0,32.7,32.1L38,34.4l2-3.6-4.7-3.45q.2-.85.325-1.675A11.166,11.166,0,0,0,35.75,24a13.908,13.908,0,0,0-.1-1.675,10.346,10.346,0,0,0-.35-1.675L40,17.2l-2-3.6-5.3,2.3a11.146,11.146,0,0,0-2.6-2.175A8.433,8.433,0,0,0,26.9,12.6L26.2,7H21.8l-.7,5.6a10.594,10.594,0,0,0-3.175,1.2A11.028,11.028,0,0,0,15.3,15.9L10,13.6,8,17.2l4.7,3.45q-.2.85-.325,1.675a11.285,11.285,0,0,0,0,3.35q.125.825.325,1.675L8,30.8l2,3.6,5.3-2.3a12.815,12.815,0,0,0,2.675,2.05A11.792,11.792,0,0,0,21.1,35.4Z" transform="translate(-4 -4)" fill="#fff"/>
</svg>
