<svg xmlns="http://www.w3.org/2000/svg" width="40" height="40" viewBox="0 0 69.08 58.522">
  <path id="event_upcoming_FILL0_wght400_GRAD0_opsz48" d="M47.621,58.062V54.008H66.334V24.949H13.868V39.816H8.621V12.109A3.533,3.533,0,0,1,10.2,9.271a5.835,5.835,0,0,1,3.673-1.216h5.684V4h5.684V8.055H54.966V4H60.65V8.055h5.684a5.835,5.835,0,0,1,3.673,1.216,3.533,3.533,0,0,1,1.574,2.838v41.9a3.533,3.533,0,0,1-1.574,2.838,5.835,5.835,0,0,1-3.673,1.216ZM26.11,62.522l-3.673-2.838,9.881-7.7H2.5V47.926H32.318l-9.881-7.7,3.673-2.838L42.374,49.953ZM13.868,20.894H66.334V12.109H13.868Zm0,0V12.109h0Z" transform="translate(-2.5 -4)" fill="#282b77"/>
</svg>
